<svg width="36" height="36" viewBox="0 0 36 36" fill="none" xmlns="http://www.w3.org/2000/svg">
<path d="M33.5947 27.3369C33.5947 29.9514 33.5947 32.4865 33.5947 35.061C26.5016 35.061 19.4559 35.061 12.3826 35.061C12.3826 26.0418 12.3826 17.053 12.3826 8.01855C13.8474 8.01855 15.3222 8.01855 16.8577 8.01855C16.8577 8.66258 16.8577 9.28758 16.8577 9.95166C20.931 9.95166 24.9442 9.95166 29.0185 9.95166C29.0185 9.31664 29.0185 8.69301 29.0185 8.02218C30.5543 8.02218 32.0305 8.02218 33.5947 8.02218C33.5947 14.4225 33.5947 20.84 33.5947 27.3369ZM29.7862 17.3534C29.7862 16.6229 29.7862 15.8925 29.7862 15.1562C26.7369 15.1562 23.7499 15.1562 20.7803 15.1562C20.7803 15.9538 20.7803 16.7023 20.7803 17.4596C23.7846 17.4596 26.7332 17.4596 29.7862 17.3534ZM29.806 21.3872C29.806 21.0244 29.806 20.6616 29.806 20.2614C26.7512 20.2614 23.7666 20.2614 20.7689 20.2614C20.7689 21.0549 20.7689 21.804 20.7689 22.532C23.8005 22.532 26.7867 22.532 29.806 22.532C29.806 22.1657 29.806 21.8521 29.806 21.3872ZM28.3226 27.7744C28.8077 27.7744 29.2927 27.7744 29.7719 27.7744C29.7719 26.9227 29.7719 26.1908 29.7719 25.4276C26.7505 25.4276 23.7639 25.4276 20.7709 25.4276C20.7709 26.2176 20.7709 26.9672 20.7709 27.7744C23.2682 27.7744 25.7183 27.7744 28.3226 27.7744ZM18.6316 22.6095C19.2506 21.905 19.3528 21.1654 18.9174 20.5417C18.5045 19.9502 17.7647 19.7241 17.1152 19.9907C16.3011 20.325 15.9177 21.2147 16.2452 22.0097C16.6178 22.914 17.5222 23.1807 18.6316 22.6095ZM16.153 26.4839C16.236 27.6564 17.0854 28.3627 18.0594 28.0692C18.8024 27.8454 19.248 27.158 19.1593 26.3726C19.0761 25.636 18.492 25.0761 17.7469 25.0186C17.0194 24.9625 16.4098 25.4759 16.153 26.4839ZM18.8508 17.2421C19.307 16.4451 19.2842 15.7617 18.7606 15.2245C18.2675 14.7186 17.6703 14.6295 17.0376 14.8905C16.3869 15.1589 16.0581 15.8313 16.1677 16.5738C16.3444 17.7719 17.6929 18.1684 18.8508 17.2421Z" fill="white"/>
<path d="M22.4503 4.77073C23.6508 4.55437 24.4312 4.93894 24.9567 6.33559C25.9669 6.33559 26.736 6.30527 27.8258 6.30527C27.8258 7.24004 27.8258 8.11775 27.8258 9.03631C24.5924 9.03631 21.3655 9.03631 18.0893 9.03631C18.0893 8.16616 18.0893 7.28485 18.0893 6.33559C19.1428 6.33559 20.1999 6.33559 20.9007 6.33559C21.536 5.67349 21.6596 5.02576 22.4503 4.77073ZM23.6141 5.94074C23.3215 5.53793 22.9164 5.39476 22.5491 5.72766C22.3501 5.90808 22.1857 6.3851 22.2862 6.58146C22.4147 6.83264 22.8468 7.10113 23.1111 7.06724C23.6142 7.00272 23.8138 6.57787 23.6141 5.94074Z" fill="white"/>
<path d="M12.6592 0.5H10.7137C10.4451 0.5 10.2274 0.75966 10.2274 1.07997V1.65994H9.25462V1.07997C9.25462 0.759695 9.03686 0.5 8.76824 0.5H3.90457C2.02728 0.5 0.5 2.3212 0.5 4.55973V5.71963C0.5 6.03991 0.717758 6.2996 0.986379 6.2996H1.95911C2.2277 6.2996 2.44549 6.03995 2.44549 5.71963C2.44549 5.08005 2.88185 4.55973 3.41822 4.55973C3.95459 4.55973 4.39095 5.08005 4.39095 5.71963C4.39095 6.03991 4.6087 6.2996 4.87733 6.2996H5.3637V16.3522C5.3637 17.4182 6.091 18.2854 6.98493 18.2854C7.87889 18.2854 8.60615 17.4182 8.60615 16.3522V6.2996H8.76827C9.03686 6.2996 9.25465 6.03995 9.25465 5.71963V5.13966H10.2274V5.71963C10.2274 6.03991 10.4451 6.2996 10.7138 6.2996H12.6592C12.9278 6.2996 13.1456 6.03995 13.1456 5.71963V1.07997C13.1456 0.75966 12.9278 0.5 12.6592 0.5ZM10.2274 3.97976H9.25465V2.81985H10.2274V3.97976Z" fill="white"/>
</svg>
